# xmcd
#
# Track frame offsets:
#	150
#	36819
#	90718
#	120552
#	230156
#	260926
#
# Disc length: 3634 seconds
#
# Revision: 0
# Processed by: cddbd v1.5.1PL0 Copyright (c) Steve Scherf et al.
# Submitted via: audiograbber 1.83.01
#
DISCID=510e3006
DTITLE=Hansjörg Schneider - Tod einer Ärztin CD 5
DYEAR=2003
DGENRE=Hörspiel
TTITLE0=Hunkeler bittet um freie Hand
TTITLE1=Hunkeler fragt nach ersten und letzten Sätzen
TTITLE2=Hunkeler bohrt
TTITLE3=Hunkeler hofft auf einen würdigen Gegner
TTITLE4=Hunkeler und das Messer in der Pappel
TTITLE5=Hunkeler schaut in die Zukunft
EXTD=
EXTT0=
EXTT1=
EXTT2=
EXTT3=
EXTT4=
EXTT5=
PLAYORDER=
